<svg width="97" height="24" viewBox="0 0 97 24" fill="none" xmlns="http://www.w3.org/2000/svg">
    <g clip-path="url(#clip0_24159_338469)">
        <path d="M38.5303 12.5303C38.8232 12.2374 38.8232 11.7626 38.5303 11.4697L33.7574 6.6967C33.4645 6.40381 32.9896 6.40381 32.6967 6.6967C32.4038 6.9896 32.4038 7.46447 32.6967 7.75736L36.9393 12L32.6967 16.2426C32.4038 16.5355 32.4038 17.0104 32.6967 17.3033C32.9896 17.5962 33.4645 17.5962 33.7574 17.3033L38.5303 12.5303ZM2 12.75L38 12.75L38 11.25L2 11.25L2 12.75Z"
              fill="#0a68ac"/>
    </g>
    <g clip-path="url(#clip1_24159_338469)">
        <path d="M95.5303 12.5303C95.8232 12.2374 95.8232 11.7626 95.5303 11.4697L90.7574 6.6967C90.4645 6.40381 89.9896 6.40381 89.6967 6.6967C89.4038 6.9896 89.4038 7.46447 89.6967 7.75736L93.9393 12L89.6967 16.2426C89.4038 16.5355 89.4038 17.0104 89.6967 17.3033C89.9896 17.5962 90.4645 17.5962 90.7574 17.3033L95.5303 12.5303ZM59 12.75L95 12.75L95 11.25L59 11.25L59 12.75Z"
              fill="#0a68ac"/>
    </g>
</svg>
