<svg xmlns="http://www.w3.org/2000/svg" viewBox="0 0 425.2 311.81"><defs><style>.cls-1{fill:#5ac8f5;}.cls-2{fill:#393f45;}.cls-3{fill:none;}</style></defs><g id="German_Quality" data-name="German Quality"><g id="Images_Storage" data-name="Images Storage"><path class="cls-1" d="M212.6,31.91a124,124,0,1,0,124,124A124,124,0,0,0,212.6,31.91Zm0,139a15,15,0,1,1,15-15A15,15,0,0,1,212.6,170.91Z"/><path class="cls-2" d="M329.42,210.68h0a5,5,0,1,1-9.05-4.25A119,119,0,1,0,212.6,274.91c3.17,0,6.31-.13,9.42-.37a119.28,119.28,0,0,0,16.5-2.46,5,5,0,1,1,2.16,9.76,129.69,129.69,0,0,1-17.88,2.67c-3.37.26-6.77.4-10.2.4a128.93,128.93,0,1,1,116.82-74.23ZM212.6,135.91a20,20,0,1,1-20,20A20,20,0,0,1,212.6,135.91Zm0,10a10,10,0,1,0,10,10A10,10,0,0,0,212.6,145.91Zm85.33,92.49h0L279,257.33V155.91a66,66,0,1,0-66,66,5,5,0,0,0,0-10,56.87,56.87,0,0,1-8.62-.66A56,56,0,1,1,269,155.91V257.38l-19-19a5,5,0,0,0-7.07,7.07L270.44,273a5,5,0,0,0,7.07,0L305,245.47a5,5,0,1,0-7.07-7.07Z"/></g></g><g id="Rahmen"><rect class="cls-3" width="425.2" height="311.81"/></g></svg>