<svg width="98" height="98" viewBox="0 0 98 98" fill="none" xmlns="http://www.w3.org/2000/svg">
<circle cx="49" cy="49" r="49" fill="#1072FF"/>
<path d="M63.3786 48.549V40.6689C63.3786 35.901 61.9415 31.7552 59.1516 28.6803C56.4139 25.6622 52.6626 24 48.5555 24C44.4485 24 40.6506 25.6622 37.9127 28.6803C35.123 31.7552 33.6206 35.901 33.6206 40.6689V48.549C32.0544 49.0341 30.7119 50.5799 30.7119 52.4155V68.9726C30.7119 71.1968 32.5896 73 34.8138 73H62.3344C64.5586 73 66.2873 71.1968 66.2873 68.9726V52.4155C66.2873 50.5799 65.1685 49.0341 63.3786 48.549ZM48.4063 63.6772C46.7586 63.6772 45.4231 62.3415 45.4231 60.6941C45.4231 59.0464 46.7586 57.7109 48.4063 57.7109C50.0539 57.7109 51.3895 59.0466 51.3895 60.6941C51.3897 62.3417 50.0539 63.6772 48.4063 63.6772ZM57.785 48.3881H39.2142V40.6689C39.2142 34.1479 43.0324 29.5936 48.4996 29.5936C53.9668 29.5936 57.785 34.1479 57.785 40.6689V48.3881Z" fill="white"/>
</svg>
