<svg width="94" height="94" viewBox="0 0 94 94" fill="none" xmlns="http://www.w3.org/2000/svg">
<circle cx="47" cy="47" r="47" fill="#1072FF"/>
<path d="M33 40C36.2619 40 39.0024 37.7694 39.7794 34.75H66.2499C67.2164 34.75 67.9999 33.9665 67.9999 33.0001C68 32.0335 67.2165 31.25 66.25 31.25H39.7795C39.0025 28.2307 36.262 26 33.0001 26C29.1338 26 26 29.1338 26 33C26 36.8662 29.1338 40 33 40ZM33 29.5C34.9332 29.5 36.5 31.0667 36.5 33.0001C36.5 34.9334 34.9333 36.5 33 36.5C31.0667 36.5 29.4999 34.9333 29.4999 33C29.4999 31.0667 31.0667 29.5 33 29.5Z" fill="white"/>
<path d="M61 54C57.7381 54 54.9976 56.2307 54.2206 59.25H27.75C26.7835 59.25 26 60.0336 26 61.0001C26 61.9665 26.7835 62.75 27.75 62.75H54.2205C54.9975 65.7694 57.738 68 60.9999 68C64.8662 68 68 64.8663 68 61.0001C68 57.1338 64.8662 54 61 54ZM61 64.5C59.0668 64.5 57.5 62.9333 57.5 61C57.5 59.0667 59.0667 57.5 61 57.5C62.9333 57.5 64.5001 59.0667 64.5001 61.0001C64.5001 62.9334 62.9333 64.5 61 64.5Z" fill="white"/>
<path d="M66.25 45.25H53.7795C53.0025 42.2307 50.262 40 47 40C43.738 40 40.9975 42.2307 40.2205 45.25H27.75C26.7835 45.25 26 46.0335 26 47C26 47.9665 26.7835 48.7499 27.75 48.7499H40.2204C40.9974 51.7693 43.7379 53.9999 46.9999 53.9999C50.2619 53.9999 53.0024 51.7693 53.7794 48.7499H66.2499C67.2164 48.7499 67.9998 47.9665 67.9998 47C67.9998 46.0335 67.2165 45.25 66.25 45.25ZM47 50.5C45.0668 50.5 43.5 48.9333 43.5 47C43.5 45.0667 45.0667 43.4999 47 43.4999C48.9333 43.4999 50.5 45.0667 50.5 47C50.5 48.9333 48.9332 50.5 47 50.5Z" fill="white"/>
</svg>
