<svg xmlns:xlink="http://www.w3.org/1999/xlink" xmlns="http://www.w3.org/2000/svg" class="
            site-icon
            site-icon--fill
            site-icon--logo
            site-icon--prefix
          " width="53"  height="14" ><defs><symbol id="icon-jcb_logo" viewBox="0 0 53 14"><title>JCB-logo</title><path d="M45.636 11.454c-.113.023-.348.044-.473.044H41.2v-3.59h3.963c.125 0 .36.022.473.044.76.167 1.392.84 1.392 1.75 0 .916-.632 1.587-1.392 1.752zM41.2 2.568h3.593c.13 0 .32.017.39.03.743.126 1.377.728 1.377 1.627 0 .9-.634 1.5-1.378 1.627-.07.01-.26.03-.39.03h-3.59V2.57zm7.702 4.37v-.08c2.01-.293 3.114-1.598 3.114-3.125C52.016 1.79 50.4.67 48.21.56c-.17-.007-.447-.024-.67-.024H35.804v13.088H48.47c2.487 0 4.352-1.33 4.352-3.404 0-1.915-1.7-3.13-3.92-3.283zM9.584 8.432c0 1.934-1.3 3.37-3.666 3.37-2.018 0-4-.6-5.918-1.527v2.88s3.086.843 7.023.843c6.54 0 8.446-2.476 8.446-5.566V.536H9.583v7.896"></path><path d="M28.722 2.38c2.14.162 3.798.808 5.182 1.506V1.003s-2.768-.696-5.372-.81C19.452-.214 16.878 3.35 16.878 7.08c0 3.73 2.574 7.295 11.654 6.888 2.604-.118 5.372-.813 5.372-.813v-2.88c-1.363.678-3.043 1.344-5.182 1.503-3.696.28-5.92-1.52-5.92-4.697 0-3.18 2.224-4.977 5.92-4.7" id="Fill-7"></path></symbol></defs>
            <use xlink:href="#icon-jcb_logo" fill="#FFFFFF"></use>
          </svg>